<svg xmlns="http://www.w3.org/2000/svg" width="960" height="600" viewBox="0 0 960 600">
<defs><linearGradient id="g" x1="0" y1="0" x2="1" y2="1"><stop offset="0" stop-color="#faf5ff"/><stop offset="1" stop-color="#ecfeff"/></linearGradient><linearGradient id="card" x1="0" x2="1"><stop offset="0" stop-color="#111827"/><stop offset="1" stop-color="#312e81"/></linearGradient></defs>
<rect width="960" height="600" rx="38" fill="url(#g)"/>
<text x="56" y="68" font-family="Inter, Arial" font-size="25" font-weight="800" fill="#111827">Item 3 — AI Story Business Card mock</text>
<g transform="translate(64 105)">
<rect width="250" height="420" rx="26" fill="#fff" stroke="#e5e7eb"/>
<text x="28" y="52" font-family="Inter, Arial" font-size="19" font-weight="800" fill="#111827">1분 입력</text>
<rect x="28" y="82" width="194" height="42" rx="12" fill="#f3f4f6"/><text x="42" y="108" font-family="Inter, Arial" font-size="14" fill="#6b7280">이름 / 직함</text>
<rect x="28" y="140" width="194" height="42" rx="12" fill="#f3f4f6"/><text x="42" y="166" font-family="Inter, Arial" font-size="14" fill="#6b7280">키워드 3개</text>
<rect x="28" y="198" width="194" height="86" rx="12" fill="#f3f4f6"/><text x="42" y="226" font-family="Inter, Arial" font-size="14" fill="#6b7280">나를 소개하는 문장</text>
<rect x="28" y="322" width="194" height="54" rx="18" fill="#111827"/><text x="125" y="356" text-anchor="middle" font-family="Inter, Arial" font-size="17" font-weight="800" fill="#fff">Generate</text>
</g>
<path d="M335 315 L410 315" stroke="#64748b" stroke-width="5" stroke-linecap="round"/><path d="M398 300 L420 315 L398 330" fill="none" stroke="#64748b" stroke-width="5" stroke-linecap="round"/>
<g transform="translate(438 120)">
<rect width="360" height="218" rx="28" fill="url(#card)"/>
<text x="35" y="60" font-family="Inter, Arial" font-size="28" font-weight="900" fill="#fff">Sunggyu Kim</text>
<text x="35" y="94" font-family="Inter, Arial" font-size="16" fill="#c4b5fd">Battery Engineer · AI Builder</text>
<text x="35" y="150" font-family="Inter, Arial" font-size="20" font-weight="700" fill="#fff">복잡한 시스템을
실행 가능한 실험으로 바꿉니다.</text>
<rect x="282" y="140" width="48" height="48" rx="10" fill="#fff" opacity=".92"/>
</g>
<g transform="translate(438 375)">
<rect width="110" height="110" rx="20" fill="#fff" stroke="#e5e7eb"/><text x="55" y="58" text-anchor="middle" font-family="Inter, Arial" font-size="14" font-weight="800" fill="#111827">Origin</text>
<rect x="132" width="110" height="110" rx="20" fill="#fff" stroke="#e5e7eb"/><text x="187" y="58" text-anchor="middle" font-family="Inter, Arial" font-size="14" font-weight="800" fill="#111827">Problem</text>
<rect x="264" width="110" height="110" rx="20" fill="#fff" stroke="#e5e7eb"/><text x="319" y="58" text-anchor="middle" font-family="Inter, Arial" font-size="14" font-weight="800" fill="#111827">Offer</text>
</g>
<text x="438" y="535" font-family="Inter, Arial" font-size="20" fill="#374151">Output: digital card + 3-cut storyboard + paid PNG/PDF export CTA</text>
</svg>