solid sg90_clicker_mount_preview
  facet normal 0.000000 0.000000 1.000000
    outer loop
      vertex 0.0000 0.0000 0.0000
      vertex 90.0000 0.0000 0.0000
      vertex 90.0000 70.0000 0.0000
    endloop
  endfacet
  facet normal 0.000000 0.000000 1.000000
    outer loop
      vertex 0.0000 0.0000 0.0000
      vertex 90.0000 70.0000 0.0000
      vertex 0.0000 70.0000 0.0000
    endloop
  endfacet
  facet normal 0.000000 0.000000 -1.000000
    outer loop
      vertex 0.0000 0.0000 3.0000
      vertex 90.0000 70.0000 3.0000
      vertex 90.0000 0.0000 3.0000
    endloop
  endfacet
  facet normal 0.000000 0.000000 -1.000000
    outer loop
      vertex 0.0000 0.0000 3.0000
      vertex 0.0000 70.0000 3.0000
      vertex 90.0000 70.0000 3.0000
    endloop
  endfacet
  facet normal 0.000000 1.000000 0.000000
    outer loop
      vertex 0.0000 0.0000 0.0000
      vertex 0.0000 0.0000 3.0000
      vertex 90.0000 0.0000 3.0000
    endloop
  endfacet
  facet normal 0.000000 1.000000 0.000000
    outer loop
      vertex 0.0000 0.0000 0.0000
      vertex 90.0000 0.0000 3.0000
      vertex 90.0000 0.0000 0.0000
    endloop
  endfacet
  facet normal -1.000000 0.000000 0.000000
    outer loop
      vertex 90.0000 0.0000 0.0000
      vertex 90.0000 0.0000 3.0000
      vertex 90.0000 70.0000 3.0000
    endloop
  endfacet
  facet normal -1.000000 0.000000 0.000000
    outer loop
      vertex 90.0000 0.0000 0.0000
      vertex 90.0000 70.0000 3.0000
      vertex 90.0000 70.0000 0.0000
    endloop
  endfacet
  facet normal 0.000000 -1.000000 0.000000
    outer loop
      vertex 90.0000 70.0000 0.0000
      vertex 90.0000 70.0000 3.0000
      vertex 0.0000 70.0000 3.0000
    endloop
  endfacet
  facet normal 0.000000 -1.000000 0.000000
    outer loop
      vertex 90.0000 70.0000 0.0000
      vertex 0.0000 70.0000 3.0000
      vertex 0.0000 70.0000 0.0000
    endloop
  endfacet
  facet normal 1.000000 0.000000 0.000000
    outer loop
      vertex 0.0000 70.0000 0.0000
      vertex 0.0000 70.0000 3.0000
      vertex 0.0000 0.0000 3.0000
    endloop
  endfacet
  facet normal 1.000000 0.000000 0.000000
    outer loop
      vertex 0.0000 70.0000 0.0000
      vertex 0.0000 0.0000 3.0000
      vertex 0.0000 0.0000 0.0000
    endloop
  endfacet
  facet normal 0.000000 0.000000 1.000000
    outer loop
      vertex 15.1000 15.1000 3.0000
      vertex 17.5000 15.1000 3.0000
      vertex 17.5000 32.1000 3.0000
    endloop
  endfacet
  facet normal 0.000000 0.000000 1.000000
    outer loop
      vertex 15.1000 15.1000 3.0000
      vertex 17.5000 32.1000 3.0000
      vertex 15.1000 32.1000 3.0000
    endloop
  endfacet
  facet normal 0.000000 0.000000 -1.000000
    outer loop
      vertex 15.1000 15.1000 36.0000
      vertex 17.5000 32.1000 36.0000
      vertex 17.5000 15.1000 36.0000
    endloop
  endfacet
  facet normal 0.000000 0.000000 -1.000000
    outer loop
      vertex 15.1000 15.1000 36.0000
      vertex 15.1000 32.1000 36.0000
      vertex 17.5000 32.1000 36.0000
    endloop
  endfacet
  facet normal 0.000000 1.000000 0.000000
    outer loop
      vertex 15.1000 15.1000 3.0000
      vertex 15.1000 15.1000 36.0000
      vertex 17.5000 15.1000 36.0000
    endloop
  endfacet
  facet normal 0.000000 1.000000 0.000000
    outer loop
      vertex 15.1000 15.1000 3.0000
      vertex 17.5000 15.1000 36.0000
      vertex 17.5000 15.1000 3.0000
    endloop
  endfacet
  facet normal -1.000000 0.000000 0.000000
    outer loop
      vertex 17.5000 15.1000 3.0000
      vertex 17.5000 15.1000 36.0000
      vertex 17.5000 32.1000 36.0000
    endloop
  endfacet
  facet normal -1.000000 0.000000 0.000000
    outer loop
      vertex 17.5000 15.1000 3.0000
      vertex 17.5000 32.1000 36.0000
      vertex 17.5000 32.1000 3.0000
    endloop
  endfacet
  facet normal 0.000000 -1.000000 0.000000
    outer loop
      vertex 17.5000 32.1000 3.0000
      vertex 17.5000 32.1000 36.0000
      vertex 15.1000 32.1000 36.0000
    endloop
  endfacet
  facet normal 0.000000 -1.000000 0.000000
    outer loop
      vertex 17.5000 32.1000 3.0000
      vertex 15.1000 32.1000 36.0000
      vertex 15.1000 32.1000 3.0000
    endloop
  endfacet
  facet normal 1.000000 0.000000 -0.000000
    outer loop
      vertex 15.1000 32.1000 3.0000
      vertex 15.1000 32.1000 36.0000
      vertex 15.1000 15.1000 36.0000
    endloop
  endfacet
  facet normal 1.000000 0.000000 0.000000
    outer loop
      vertex 15.1000 32.1000 3.0000
      vertex 15.1000 15.1000 36.0000
      vertex 15.1000 15.1000 3.0000
    endloop
  endfacet
  facet normal 0.000000 0.000000 1.000000
    outer loop
      vertex 41.4500 15.1000 3.0000
      vertex 43.8500 15.1000 3.0000
      vertex 43.8500 32.1000 3.0000
    endloop
  endfacet
  facet normal 0.000000 0.000000 1.000000
    outer loop
      vertex 41.4500 15.1000 3.0000
      vertex 43.8500 32.1000 3.0000
      vertex 41.4500 32.1000 3.0000
    endloop
  endfacet
  facet normal 0.000000 0.000000 -1.000000
    outer loop
      vertex 41.4500 15.1000 36.0000
      vertex 43.8500 32.1000 36.0000
      vertex 43.8500 15.1000 36.0000
    endloop
  endfacet
  facet normal 0.000000 0.000000 -1.000000
    outer loop
      vertex 41.4500 15.1000 36.0000
      vertex 41.4500 32.1000 36.0000
      vertex 43.8500 32.1000 36.0000
    endloop
  endfacet
  facet normal 0.000000 1.000000 0.000000
    outer loop
      vertex 41.4500 15.1000 3.0000
      vertex 41.4500 15.1000 36.0000
      vertex 43.8500 15.1000 36.0000
    endloop
  endfacet
  facet normal 0.000000 1.000000 0.000000
    outer loop
      vertex 41.4500 15.1000 3.0000
      vertex 43.8500 15.1000 36.0000
      vertex 43.8500 15.1000 3.0000
    endloop
  endfacet
  facet normal -1.000000 0.000000 0.000000
    outer loop
      vertex 43.8500 15.1000 3.0000
      vertex 43.8500 15.1000 36.0000
      vertex 43.8500 32.1000 36.0000
    endloop
  endfacet
  facet normal -1.000000 0.000000 0.000000
    outer loop
      vertex 43.8500 15.1000 3.0000
      vertex 43.8500 32.1000 36.0000
      vertex 43.8500 32.1000 3.0000
    endloop
  endfacet
  facet normal 0.000000 -1.000000 0.000000
    outer loop
      vertex 43.8500 32.1000 3.0000
      vertex 43.8500 32.1000 36.0000
      vertex 41.4500 32.1000 36.0000
    endloop
  endfacet
  facet normal 0.000000 -1.000000 0.000000
    outer loop
      vertex 43.8500 32.1000 3.0000
      vertex 41.4500 32.1000 36.0000
      vertex 41.4500 32.1000 3.0000
    endloop
  endfacet
  facet normal 1.000000 0.000000 -0.000000
    outer loop
      vertex 41.4500 32.1000 3.0000
      vertex 41.4500 32.1000 36.0000
      vertex 41.4500 15.1000 36.0000
    endloop
  endfacet
  facet normal 1.000000 0.000000 0.000000
    outer loop
      vertex 41.4500 32.1000 3.0000
      vertex 41.4500 15.1000 36.0000
      vertex 41.4500 15.1000 3.0000
    endloop
  endfacet
  facet normal 0.000000 0.000000 1.000000
    outer loop
      vertex 15.1000 15.1000 3.0000
      vertex 43.8500 15.1000 3.0000
      vertex 43.8500 17.5000 3.0000
    endloop
  endfacet
  facet normal 0.000000 0.000000 1.000000
    outer loop
      vertex 15.1000 15.1000 3.0000
      vertex 43.8500 17.5000 3.0000
      vertex 15.1000 17.5000 3.0000
    endloop
  endfacet
  facet normal 0.000000 0.000000 -1.000000
    outer loop
      vertex 15.1000 15.1000 15.0000
      vertex 43.8500 17.5000 15.0000
      vertex 43.8500 15.1000 15.0000
    endloop
  endfacet
  facet normal 0.000000 0.000000 -1.000000
    outer loop
      vertex 15.1000 15.1000 15.0000
      vertex 15.1000 17.5000 15.0000
      vertex 43.8500 17.5000 15.0000
    endloop
  endfacet
  facet normal 0.000000 1.000000 0.000000
    outer loop
      vertex 15.1000 15.1000 3.0000
      vertex 15.1000 15.1000 15.0000
      vertex 43.8500 15.1000 15.0000
    endloop
  endfacet
  facet normal 0.000000 1.000000 0.000000
    outer loop
      vertex 15.1000 15.1000 3.0000
      vertex 43.8500 15.1000 15.0000
      vertex 43.8500 15.1000 3.0000
    endloop
  endfacet
  facet normal -1.000000 0.000000 0.000000
    outer loop
      vertex 43.8500 15.1000 3.0000
      vertex 43.8500 15.1000 15.0000
      vertex 43.8500 17.5000 15.0000
    endloop
  endfacet
  facet normal -1.000000 0.000000 0.000000
    outer loop
      vertex 43.8500 15.1000 3.0000
      vertex 43.8500 17.5000 15.0000
      vertex 43.8500 17.5000 3.0000
    endloop
  endfacet
  facet normal 0.000000 -1.000000 0.000000
    outer loop
      vertex 43.8500 17.5000 3.0000
      vertex 43.8500 17.5000 15.0000
      vertex 15.1000 17.5000 15.0000
    endloop
  endfacet
  facet normal 0.000000 -1.000000 0.000000
    outer loop
      vertex 43.8500 17.5000 3.0000
      vertex 15.1000 17.5000 15.0000
      vertex 15.1000 17.5000 3.0000
    endloop
  endfacet
  facet normal 1.000000 0.000000 -0.000000
    outer loop
      vertex 15.1000 17.5000 3.0000
      vertex 15.1000 17.5000 15.0000
      vertex 15.1000 15.1000 15.0000
    endloop
  endfacet
  facet normal 1.000000 0.000000 0.000000
    outer loop
      vertex 15.1000 17.5000 3.0000
      vertex 15.1000 15.1000 15.0000
      vertex 15.1000 15.1000 3.0000
    endloop
  endfacet
  facet normal 0.000000 0.000000 1.000000
    outer loop
      vertex 15.1000 29.7500 3.0000
      vertex 43.8500 29.7500 3.0000
      vertex 43.8500 32.1500 3.0000
    endloop
  endfacet
  facet normal 0.000000 0.000000 1.000000
    outer loop
      vertex 15.1000 29.7500 3.0000
      vertex 43.8500 32.1500 3.0000
      vertex 15.1000 32.1500 3.0000
    endloop
  endfacet
  facet normal 0.000000 0.000000 -1.000000
    outer loop
      vertex 15.1000 29.7500 15.0000
      vertex 43.8500 32.1500 15.0000
      vertex 43.8500 29.7500 15.0000
    endloop
  endfacet
  facet normal 0.000000 0.000000 -1.000000
    outer loop
      vertex 15.1000 29.7500 15.0000
      vertex 15.1000 32.1500 15.0000
      vertex 43.8500 32.1500 15.0000
    endloop
  endfacet
  facet normal 0.000000 1.000000 0.000000
    outer loop
      vertex 15.1000 29.7500 3.0000
      vertex 15.1000 29.7500 15.0000
      vertex 43.8500 29.7500 15.0000
    endloop
  endfacet
  facet normal 0.000000 1.000000 0.000000
    outer loop
      vertex 15.1000 29.7500 3.0000
      vertex 43.8500 29.7500 15.0000
      vertex 43.8500 29.7500 3.0000
    endloop
  endfacet
  facet normal -1.000000 0.000000 0.000000
    outer loop
      vertex 43.8500 29.7500 3.0000
      vertex 43.8500 29.7500 15.0000
      vertex 43.8500 32.1500 15.0000
    endloop
  endfacet
  facet normal -1.000000 0.000000 0.000000
    outer loop
      vertex 43.8500 29.7500 3.0000
      vertex 43.8500 32.1500 15.0000
      vertex 43.8500 32.1500 3.0000
    endloop
  endfacet
  facet normal 0.000000 -1.000000 0.000000
    outer loop
      vertex 43.8500 32.1500 3.0000
      vertex 43.8500 32.1500 15.0000
      vertex 15.1000 32.1500 15.0000
    endloop
  endfacet
  facet normal 0.000000 -1.000000 0.000000
    outer loop
      vertex 43.8500 32.1500 3.0000
      vertex 15.1000 32.1500 15.0000
      vertex 15.1000 32.1500 3.0000
    endloop
  endfacet
  facet normal 1.000000 0.000000 -0.000000
    outer loop
      vertex 15.1000 32.1500 3.0000
      vertex 15.1000 32.1500 15.0000
      vertex 15.1000 29.7500 15.0000
    endloop
  endfacet
  facet normal 1.000000 0.000000 0.000000
    outer loop
      vertex 15.1000 32.1500 3.0000
      vertex 15.1000 29.7500 15.0000
      vertex 15.1000 29.7500 3.0000
    endloop
  endfacet
  facet normal 0.000000 0.000000 1.000000
    outer loop
      vertex 12.0000 12.0000 18.8000
      vertex 47.0000 12.0000 18.8000
      vertex 47.0000 15.0000 18.8000
    endloop
  endfacet
  facet normal 0.000000 0.000000 1.000000
    outer loop
      vertex 12.0000 12.0000 18.8000
      vertex 47.0000 15.0000 18.8000
      vertex 12.0000 15.0000 18.8000
    endloop
  endfacet
  facet normal 0.000000 0.000000 -1.000000
    outer loop
      vertex 12.0000 12.0000 21.2000
      vertex 47.0000 15.0000 21.2000
      vertex 47.0000 12.0000 21.2000
    endloop
  endfacet
  facet normal 0.000000 0.000000 -1.000000
    outer loop
      vertex 12.0000 12.0000 21.2000
      vertex 12.0000 15.0000 21.2000
      vertex 47.0000 15.0000 21.2000
    endloop
  endfacet
  facet normal 0.000000 1.000000 0.000000
    outer loop
      vertex 12.0000 12.0000 18.8000
      vertex 12.0000 12.0000 21.2000
      vertex 47.0000 12.0000 21.2000
    endloop
  endfacet
  facet normal 0.000000 1.000000 0.000000
    outer loop
      vertex 12.0000 12.0000 18.8000
      vertex 47.0000 12.0000 21.2000
      vertex 47.0000 12.0000 18.8000
    endloop
  endfacet
  facet normal -1.000000 0.000000 0.000000
    outer loop
      vertex 47.0000 12.0000 18.8000
      vertex 47.0000 12.0000 21.2000
      vertex 47.0000 15.0000 21.2000
    endloop
  endfacet
  facet normal -1.000000 0.000000 0.000000
    outer loop
      vertex 47.0000 12.0000 18.8000
      vertex 47.0000 15.0000 21.2000
      vertex 47.0000 15.0000 18.8000
    endloop
  endfacet
  facet normal 0.000000 -1.000000 0.000000
    outer loop
      vertex 47.0000 15.0000 18.8000
      vertex 47.0000 15.0000 21.2000
      vertex 12.0000 15.0000 21.2000
    endloop
  endfacet
  facet normal 0.000000 -1.000000 0.000000
    outer loop
      vertex 47.0000 15.0000 18.8000
      vertex 12.0000 15.0000 21.2000
      vertex 12.0000 15.0000 18.8000
    endloop
  endfacet
  facet normal 1.000000 0.000000 0.000000
    outer loop
      vertex 12.0000 15.0000 18.8000
      vertex 12.0000 15.0000 21.2000
      vertex 12.0000 12.0000 21.2000
    endloop
  endfacet
  facet normal 1.000000 0.000000 0.000000
    outer loop
      vertex 12.0000 15.0000 18.8000
      vertex 12.0000 12.0000 21.2000
      vertex 12.0000 12.0000 18.8000
    endloop
  endfacet
  facet normal 0.000000 0.000000 1.000000
    outer loop
      vertex 12.0000 33.2000 18.8000
      vertex 47.0000 33.2000 18.8000
      vertex 47.0000 36.2000 18.8000
    endloop
  endfacet
  facet normal 0.000000 0.000000 1.000000
    outer loop
      vertex 12.0000 33.2000 18.8000
      vertex 47.0000 36.2000 18.8000
      vertex 12.0000 36.2000 18.8000
    endloop
  endfacet
  facet normal 0.000000 0.000000 -1.000000
    outer loop
      vertex 12.0000 33.2000 21.2000
      vertex 47.0000 36.2000 21.2000
      vertex 47.0000 33.2000 21.2000
    endloop
  endfacet
  facet normal 0.000000 0.000000 -1.000000
    outer loop
      vertex 12.0000 33.2000 21.2000
      vertex 12.0000 36.2000 21.2000
      vertex 47.0000 36.2000 21.2000
    endloop
  endfacet
  facet normal 0.000000 1.000000 0.000000
    outer loop
      vertex 12.0000 33.2000 18.8000
      vertex 12.0000 33.2000 21.2000
      vertex 47.0000 33.2000 21.2000
    endloop
  endfacet
  facet normal 0.000000 1.000000 0.000000
    outer loop
      vertex 12.0000 33.2000 18.8000
      vertex 47.0000 33.2000 21.2000
      vertex 47.0000 33.2000 18.8000
    endloop
  endfacet
  facet normal -1.000000 0.000000 0.000000
    outer loop
      vertex 47.0000 33.2000 18.8000
      vertex 47.0000 33.2000 21.2000
      vertex 47.0000 36.2000 21.2000
    endloop
  endfacet
  facet normal -1.000000 0.000000 0.000000
    outer loop
      vertex 47.0000 33.2000 18.8000
      vertex 47.0000 36.2000 21.2000
      vertex 47.0000 36.2000 18.8000
    endloop
  endfacet
  facet normal 0.000000 -1.000000 0.000000
    outer loop
      vertex 47.0000 36.2000 18.8000
      vertex 47.0000 36.2000 21.2000
      vertex 12.0000 36.2000 21.2000
    endloop
  endfacet
  facet normal 0.000000 -1.000000 0.000000
    outer loop
      vertex 47.0000 36.2000 18.8000
      vertex 12.0000 36.2000 21.2000
      vertex 12.0000 36.2000 18.8000
    endloop
  endfacet
  facet normal 1.000000 0.000000 -0.000000
    outer loop
      vertex 12.0000 36.2000 18.8000
      vertex 12.0000 36.2000 21.2000
      vertex 12.0000 33.2000 21.2000
    endloop
  endfacet
  facet normal 1.000000 0.000000 0.000000
    outer loop
      vertex 12.0000 36.2000 18.8000
      vertex 12.0000 33.2000 21.2000
      vertex 12.0000 33.2000 18.8000
    endloop
  endfacet
  facet normal 0.000000 0.000000 1.000000
    outer loop
      vertex 56.0000 13.0000 3.0000
      vertex 60.0000 13.0000 3.0000
      vertex 60.0000 17.0000 3.0000
    endloop
  endfacet
  facet normal 0.000000 0.000000 1.000000
    outer loop
      vertex 56.0000 13.0000 3.0000
      vertex 60.0000 17.0000 3.0000
      vertex 56.0000 17.0000 3.0000
    endloop
  endfacet
  facet normal 0.000000 0.000000 -1.000000
    outer loop
      vertex 56.0000 13.0000 8.0000
      vertex 60.0000 17.0000 8.0000
      vertex 60.0000 13.0000 8.0000
    endloop
  endfacet
  facet normal 0.000000 0.000000 -1.000000
    outer loop
      vertex 56.0000 13.0000 8.0000
      vertex 56.0000 17.0000 8.0000
      vertex 60.0000 17.0000 8.0000
    endloop
  endfacet
  facet normal 0.000000 1.000000 0.000000
    outer loop
      vertex 56.0000 13.0000 3.0000
      vertex 56.0000 13.0000 8.0000
      vertex 60.0000 13.0000 8.0000
    endloop
  endfacet
  facet normal 0.000000 1.000000 0.000000
    outer loop
      vertex 56.0000 13.0000 3.0000
      vertex 60.0000 13.0000 8.0000
      vertex 60.0000 13.0000 3.0000
    endloop
  endfacet
  facet normal -1.000000 0.000000 0.000000
    outer loop
      vertex 60.0000 13.0000 3.0000
      vertex 60.0000 13.0000 8.0000
      vertex 60.0000 17.0000 8.0000
    endloop
  endfacet
  facet normal -1.000000 0.000000 0.000000
    outer loop
      vertex 60.0000 13.0000 3.0000
      vertex 60.0000 17.0000 8.0000
      vertex 60.0000 17.0000 3.0000
    endloop
  endfacet
  facet normal 0.000000 -1.000000 0.000000
    outer loop
      vertex 60.0000 17.0000 3.0000
      vertex 60.0000 17.0000 8.0000
      vertex 56.0000 17.0000 8.0000
    endloop
  endfacet
  facet normal 0.000000 -1.000000 0.000000
    outer loop
      vertex 60.0000 17.0000 3.0000
      vertex 56.0000 17.0000 8.0000
      vertex 56.0000 17.0000 3.0000
    endloop
  endfacet
  facet normal 1.000000 0.000000 0.000000
    outer loop
      vertex 56.0000 17.0000 3.0000
      vertex 56.0000 17.0000 8.0000
      vertex 56.0000 13.0000 8.0000
    endloop
  endfacet
  facet normal 1.000000 0.000000 0.000000
    outer loop
      vertex 56.0000 17.0000 3.0000
      vertex 56.0000 13.0000 8.0000
      vertex 56.0000 13.0000 3.0000
    endloop
  endfacet
  facet normal 0.000000 0.000000 1.000000
    outer loop
      vertex 56.0000 31.0000 3.0000
      vertex 60.0000 31.0000 3.0000
      vertex 60.0000 35.0000 3.0000
    endloop
  endfacet
  facet normal 0.000000 0.000000 1.000000
    outer loop
      vertex 56.0000 31.0000 3.0000
      vertex 60.0000 35.0000 3.0000
      vertex 56.0000 35.0000 3.0000
    endloop
  endfacet
  facet normal 0.000000 0.000000 -1.000000
    outer loop
      vertex 56.0000 31.0000 8.0000
      vertex 60.0000 35.0000 8.0000
      vertex 60.0000 31.0000 8.0000
    endloop
  endfacet
  facet normal 0.000000 0.000000 -1.000000
    outer loop
      vertex 56.0000 31.0000 8.0000
      vertex 56.0000 35.0000 8.0000
      vertex 60.0000 35.0000 8.0000
    endloop
  endfacet
  facet normal 0.000000 1.000000 0.000000
    outer loop
      vertex 56.0000 31.0000 3.0000
      vertex 56.0000 31.0000 8.0000
      vertex 60.0000 31.0000 8.0000
    endloop
  endfacet
  facet normal 0.000000 1.000000 0.000000
    outer loop
      vertex 56.0000 31.0000 3.0000
      vertex 60.0000 31.0000 8.0000
      vertex 60.0000 31.0000 3.0000
    endloop
  endfacet
  facet normal -1.000000 0.000000 0.000000
    outer loop
      vertex 60.0000 31.0000 3.0000
      vertex 60.0000 31.0000 8.0000
      vertex 60.0000 35.0000 8.0000
    endloop
  endfacet
  facet normal -1.000000 0.000000 0.000000
    outer loop
      vertex 60.0000 31.0000 3.0000
      vertex 60.0000 35.0000 8.0000
      vertex 60.0000 35.0000 3.0000
    endloop
  endfacet
  facet normal 0.000000 -1.000000 0.000000
    outer loop
      vertex 60.0000 35.0000 3.0000
      vertex 60.0000 35.0000 8.0000
      vertex 56.0000 35.0000 8.0000
    endloop
  endfacet
  facet normal 0.000000 -1.000000 0.000000
    outer loop
      vertex 60.0000 35.0000 3.0000
      vertex 56.0000 35.0000 8.0000
      vertex 56.0000 35.0000 3.0000
    endloop
  endfacet
  facet normal 1.000000 0.000000 0.000000
    outer loop
      vertex 56.0000 35.0000 3.0000
      vertex 56.0000 35.0000 8.0000
      vertex 56.0000 31.0000 8.0000
    endloop
  endfacet
  facet normal 1.000000 0.000000 0.000000
    outer loop
      vertex 56.0000 35.0000 3.0000
      vertex 56.0000 31.0000 8.0000
      vertex 56.0000 31.0000 3.0000
    endloop
  endfacet
  facet normal 0.000000 0.000000 1.000000
    outer loop
      vertex 78.5000 13.0000 3.0000
      vertex 82.5000 13.0000 3.0000
      vertex 82.5000 17.0000 3.0000
    endloop
  endfacet
  facet normal 0.000000 0.000000 1.000000
    outer loop
      vertex 78.5000 13.0000 3.0000
      vertex 82.5000 17.0000 3.0000
      vertex 78.5000 17.0000 3.0000
    endloop
  endfacet
  facet normal 0.000000 0.000000 -1.000000
    outer loop
      vertex 78.5000 13.0000 8.0000
      vertex 82.5000 17.0000 8.0000
      vertex 82.5000 13.0000 8.0000
    endloop
  endfacet
  facet normal 0.000000 0.000000 -1.000000
    outer loop
      vertex 78.5000 13.0000 8.0000
      vertex 78.5000 17.0000 8.0000
      vertex 82.5000 17.0000 8.0000
    endloop
  endfacet
  facet normal 0.000000 1.000000 0.000000
    outer loop
      vertex 78.5000 13.0000 3.0000
      vertex 78.5000 13.0000 8.0000
      vertex 82.5000 13.0000 8.0000
    endloop
  endfacet
  facet normal 0.000000 1.000000 0.000000
    outer loop
      vertex 78.5000 13.0000 3.0000
      vertex 82.5000 13.0000 8.0000
      vertex 82.5000 13.0000 3.0000
    endloop
  endfacet
  facet normal -1.000000 0.000000 0.000000
    outer loop
      vertex 82.5000 13.0000 3.0000
      vertex 82.5000 13.0000 8.0000
      vertex 82.5000 17.0000 8.0000
    endloop
  endfacet
  facet normal -1.000000 0.000000 0.000000
    outer loop
      vertex 82.5000 13.0000 3.0000
      vertex 82.5000 17.0000 8.0000
      vertex 82.5000 17.0000 3.0000
    endloop
  endfacet
  facet normal 0.000000 -1.000000 0.000000
    outer loop
      vertex 82.5000 17.0000 3.0000
      vertex 82.5000 17.0000 8.0000
      vertex 78.5000 17.0000 8.0000
    endloop
  endfacet
  facet normal 0.000000 -1.000000 0.000000
    outer loop
      vertex 82.5000 17.0000 3.0000
      vertex 78.5000 17.0000 8.0000
      vertex 78.5000 17.0000 3.0000
    endloop
  endfacet
  facet normal 1.000000 0.000000 -0.000000
    outer loop
      vertex 78.5000 17.0000 3.0000
      vertex 78.5000 17.0000 8.0000
      vertex 78.5000 13.0000 8.0000
    endloop
  endfacet
  facet normal 1.000000 0.000000 0.000000
    outer loop
      vertex 78.5000 17.0000 3.0000
      vertex 78.5000 13.0000 8.0000
      vertex 78.5000 13.0000 3.0000
    endloop
  endfacet
  facet normal 0.000000 0.000000 1.000000
    outer loop
      vertex 78.5000 31.0000 3.0000
      vertex 82.5000 31.0000 3.0000
      vertex 82.5000 35.0000 3.0000
    endloop
  endfacet
  facet normal 0.000000 0.000000 1.000000
    outer loop
      vertex 78.5000 31.0000 3.0000
      vertex 82.5000 35.0000 3.0000
      vertex 78.5000 35.0000 3.0000
    endloop
  endfacet
  facet normal 0.000000 0.000000 -1.000000
    outer loop
      vertex 78.5000 31.0000 8.0000
      vertex 82.5000 35.0000 8.0000
      vertex 82.5000 31.0000 8.0000
    endloop
  endfacet
  facet normal 0.000000 0.000000 -1.000000
    outer loop
      vertex 78.5000 31.0000 8.0000
      vertex 78.5000 35.0000 8.0000
      vertex 82.5000 35.0000 8.0000
    endloop
  endfacet
  facet normal 0.000000 1.000000 0.000000
    outer loop
      vertex 78.5000 31.0000 3.0000
      vertex 78.5000 31.0000 8.0000
      vertex 82.5000 31.0000 8.0000
    endloop
  endfacet
  facet normal 0.000000 1.000000 0.000000
    outer loop
      vertex 78.5000 31.0000 3.0000
      vertex 82.5000 31.0000 8.0000
      vertex 82.5000 31.0000 3.0000
    endloop
  endfacet
  facet normal -1.000000 0.000000 0.000000
    outer loop
      vertex 82.5000 31.0000 3.0000
      vertex 82.5000 31.0000 8.0000
      vertex 82.5000 35.0000 8.0000
    endloop
  endfacet
  facet normal -1.000000 0.000000 0.000000
    outer loop
      vertex 82.5000 31.0000 3.0000
      vertex 82.5000 35.0000 8.0000
      vertex 82.5000 35.0000 3.0000
    endloop
  endfacet
  facet normal 0.000000 -1.000000 0.000000
    outer loop
      vertex 82.5000 35.0000 3.0000
      vertex 82.5000 35.0000 8.0000
      vertex 78.5000 35.0000 8.0000
    endloop
  endfacet
  facet normal 0.000000 -1.000000 0.000000
    outer loop
      vertex 82.5000 35.0000 3.0000
      vertex 78.5000 35.0000 8.0000
      vertex 78.5000 35.0000 3.0000
    endloop
  endfacet
  facet normal 1.000000 0.000000 -0.000000
    outer loop
      vertex 78.5000 35.0000 3.0000
      vertex 78.5000 35.0000 8.0000
      vertex 78.5000 31.0000 8.0000
    endloop
  endfacet
  facet normal 1.000000 0.000000 0.000000
    outer loop
      vertex 78.5000 35.0000 3.0000
      vertex 78.5000 31.0000 8.0000
      vertex 78.5000 31.0000 3.0000
    endloop
  endfacet
  facet normal 0.000000 0.000000 1.000000
    outer loop
      vertex 52.0000 20.0000 3.0000
      vertex 57.0000 20.0000 3.0000
      vertex 57.0000 28.0000 3.0000
    endloop
  endfacet
  facet normal 0.000000 0.000000 1.000000
    outer loop
      vertex 52.0000 20.0000 3.0000
      vertex 57.0000 28.0000 3.0000
      vertex 52.0000 28.0000 3.0000
    endloop
  endfacet
  facet normal 0.000000 0.000000 -1.000000
    outer loop
      vertex 52.0000 20.0000 9.0000
      vertex 57.0000 28.0000 9.0000
      vertex 57.0000 20.0000 9.0000
    endloop
  endfacet
  facet normal 0.000000 0.000000 -1.000000
    outer loop
      vertex 52.0000 20.0000 9.0000
      vertex 52.0000 28.0000 9.0000
      vertex 57.0000 28.0000 9.0000
    endloop
  endfacet
  facet normal 0.000000 1.000000 0.000000
    outer loop
      vertex 52.0000 20.0000 3.0000
      vertex 52.0000 20.0000 9.0000
      vertex 57.0000 20.0000 9.0000
    endloop
  endfacet
  facet normal 0.000000 1.000000 0.000000
    outer loop
      vertex 52.0000 20.0000 3.0000
      vertex 57.0000 20.0000 9.0000
      vertex 57.0000 20.0000 3.0000
    endloop
  endfacet
  facet normal -1.000000 0.000000 0.000000
    outer loop
      vertex 57.0000 20.0000 3.0000
      vertex 57.0000 20.0000 9.0000
      vertex 57.0000 28.0000 9.0000
    endloop
  endfacet
  facet normal -1.000000 0.000000 0.000000
    outer loop
      vertex 57.0000 20.0000 3.0000
      vertex 57.0000 28.0000 9.0000
      vertex 57.0000 28.0000 3.0000
    endloop
  endfacet
  facet normal 0.000000 -1.000000 0.000000
    outer loop
      vertex 57.0000 28.0000 3.0000
      vertex 57.0000 28.0000 9.0000
      vertex 52.0000 28.0000 9.0000
    endloop
  endfacet
  facet normal 0.000000 -1.000000 0.000000
    outer loop
      vertex 57.0000 28.0000 3.0000
      vertex 52.0000 28.0000 9.0000
      vertex 52.0000 28.0000 3.0000
    endloop
  endfacet
  facet normal 1.000000 0.000000 0.000000
    outer loop
      vertex 52.0000 28.0000 3.0000
      vertex 52.0000 28.0000 9.0000
      vertex 52.0000 20.0000 9.0000
    endloop
  endfacet
  facet normal 1.000000 0.000000 0.000000
    outer loop
      vertex 52.0000 28.0000 3.0000
      vertex 52.0000 20.0000 9.0000
      vertex 52.0000 20.0000 3.0000
    endloop
  endfacet
  facet normal 0.000000 0.000000 1.000000
    outer loop
      vertex 73.0000 42.0000 3.0000
      vertex 85.0000 42.0000 3.0000
      vertex 85.0000 51.0000 3.0000
    endloop
  endfacet
  facet normal 0.000000 0.000000 1.000000
    outer loop
      vertex 73.0000 42.0000 3.0000
      vertex 85.0000 51.0000 3.0000
      vertex 73.0000 51.0000 3.0000
    endloop
  endfacet
  facet normal 0.000000 0.000000 -1.000000
    outer loop
      vertex 73.0000 42.0000 8.0000
      vertex 85.0000 51.0000 8.0000
      vertex 85.0000 42.0000 8.0000
    endloop
  endfacet
  facet normal 0.000000 0.000000 -1.000000
    outer loop
      vertex 73.0000 42.0000 8.0000
      vertex 73.0000 51.0000 8.0000
      vertex 85.0000 51.0000 8.0000
    endloop
  endfacet
  facet normal 0.000000 1.000000 0.000000
    outer loop
      vertex 73.0000 42.0000 3.0000
      vertex 73.0000 42.0000 8.0000
      vertex 85.0000 42.0000 8.0000
    endloop
  endfacet
  facet normal 0.000000 1.000000 0.000000
    outer loop
      vertex 73.0000 42.0000 3.0000
      vertex 85.0000 42.0000 8.0000
      vertex 85.0000 42.0000 3.0000
    endloop
  endfacet
  facet normal -1.000000 0.000000 0.000000
    outer loop
      vertex 85.0000 42.0000 3.0000
      vertex 85.0000 42.0000 8.0000
      vertex 85.0000 51.0000 8.0000
    endloop
  endfacet
  facet normal -1.000000 0.000000 0.000000
    outer loop
      vertex 85.0000 42.0000 3.0000
      vertex 85.0000 51.0000 8.0000
      vertex 85.0000 51.0000 3.0000
    endloop
  endfacet
  facet normal 0.000000 -1.000000 0.000000
    outer loop
      vertex 85.0000 51.0000 3.0000
      vertex 85.0000 51.0000 8.0000
      vertex 73.0000 51.0000 8.0000
    endloop
  endfacet
  facet normal 0.000000 -1.000000 0.000000
    outer loop
      vertex 85.0000 51.0000 3.0000
      vertex 73.0000 51.0000 8.0000
      vertex 73.0000 51.0000 3.0000
    endloop
  endfacet
  facet normal 1.000000 0.000000 0.000000
    outer loop
      vertex 73.0000 51.0000 3.0000
      vertex 73.0000 51.0000 8.0000
      vertex 73.0000 42.0000 8.0000
    endloop
  endfacet
  facet normal 1.000000 0.000000 0.000000
    outer loop
      vertex 73.0000 51.0000 3.0000
      vertex 73.0000 42.0000 8.0000
      vertex 73.0000 42.0000 3.0000
    endloop
  endfacet
  facet normal 0.000000 0.000000 1.000000
    outer loop
      vertex 64.0000 48.0000 3.0000
      vertex 68.0000 48.0000 3.0000
      vertex 68.0000 52.0000 3.0000
    endloop
  endfacet
  facet normal 0.000000 0.000000 1.000000
    outer loop
      vertex 64.0000 48.0000 3.0000
      vertex 68.0000 52.0000 3.0000
      vertex 64.0000 52.0000 3.0000
    endloop
  endfacet
  facet normal 0.000000 0.000000 -1.000000
    outer loop
      vertex 64.0000 48.0000 21.0000
      vertex 68.0000 52.0000 21.0000
      vertex 68.0000 48.0000 21.0000
    endloop
  endfacet
  facet normal 0.000000 0.000000 -1.000000
    outer loop
      vertex 64.0000 48.0000 21.0000
      vertex 64.0000 52.0000 21.0000
      vertex 68.0000 52.0000 21.0000
    endloop
  endfacet
  facet normal 0.000000 1.000000 0.000000
    outer loop
      vertex 64.0000 48.0000 3.0000
      vertex 64.0000 48.0000 21.0000
      vertex 68.0000 48.0000 21.0000
    endloop
  endfacet
  facet normal 0.000000 1.000000 0.000000
    outer loop
      vertex 64.0000 48.0000 3.0000
      vertex 68.0000 48.0000 21.0000
      vertex 68.0000 48.0000 3.0000
    endloop
  endfacet
  facet normal -1.000000 0.000000 0.000000
    outer loop
      vertex 68.0000 48.0000 3.0000
      vertex 68.0000 48.0000 21.0000
      vertex 68.0000 52.0000 21.0000
    endloop
  endfacet
  facet normal -1.000000 0.000000 0.000000
    outer loop
      vertex 68.0000 48.0000 3.0000
      vertex 68.0000 52.0000 21.0000
      vertex 68.0000 52.0000 3.0000
    endloop
  endfacet
  facet normal 0.000000 -1.000000 0.000000
    outer loop
      vertex 68.0000 52.0000 3.0000
      vertex 68.0000 52.0000 21.0000
      vertex 64.0000 52.0000 21.0000
    endloop
  endfacet
  facet normal 0.000000 -1.000000 0.000000
    outer loop
      vertex 68.0000 52.0000 3.0000
      vertex 64.0000 52.0000 21.0000
      vertex 64.0000 52.0000 3.0000
    endloop
  endfacet
  facet normal 1.000000 0.000000 0.000000
    outer loop
      vertex 64.0000 52.0000 3.0000
      vertex 64.0000 52.0000 21.0000
      vertex 64.0000 48.0000 21.0000
    endloop
  endfacet
  facet normal 1.000000 0.000000 0.000000
    outer loop
      vertex 64.0000 52.0000 3.0000
      vertex 64.0000 48.0000 21.0000
      vertex 64.0000 48.0000 3.0000
    endloop
  endfacet
  facet normal 0.000000 0.000000 1.000000
    outer loop
      vertex 83.0000 31.0000 3.0000
      vertex 87.0000 31.0000 3.0000
      vertex 87.0000 35.0000 3.0000
    endloop
  endfacet
  facet normal 0.000000 0.000000 1.000000
    outer loop
      vertex 83.0000 31.0000 3.0000
      vertex 87.0000 35.0000 3.0000
      vertex 83.0000 35.0000 3.0000
    endloop
  endfacet
  facet normal 0.000000 0.000000 -1.000000
    outer loop
      vertex 83.0000 31.0000 15.0000
      vertex 87.0000 35.0000 15.0000
      vertex 87.0000 31.0000 15.0000
    endloop
  endfacet
  facet normal 0.000000 0.000000 -1.000000
    outer loop
      vertex 83.0000 31.0000 15.0000
      vertex 83.0000 35.0000 15.0000
      vertex 87.0000 35.0000 15.0000
    endloop
  endfacet
  facet normal 0.000000 1.000000 0.000000
    outer loop
      vertex 83.0000 31.0000 3.0000
      vertex 83.0000 31.0000 15.0000
      vertex 87.0000 31.0000 15.0000
    endloop
  endfacet
  facet normal 0.000000 1.000000 0.000000
    outer loop
      vertex 83.0000 31.0000 3.0000
      vertex 87.0000 31.0000 15.0000
      vertex 87.0000 31.0000 3.0000
    endloop
  endfacet
  facet normal -1.000000 0.000000 0.000000
    outer loop
      vertex 87.0000 31.0000 3.0000
      vertex 87.0000 31.0000 15.0000
      vertex 87.0000 35.0000 15.0000
    endloop
  endfacet
  facet normal -1.000000 0.000000 0.000000
    outer loop
      vertex 87.0000 31.0000 3.0000
      vertex 87.0000 35.0000 15.0000
      vertex 87.0000 35.0000 3.0000
    endloop
  endfacet
  facet normal 0.000000 -1.000000 0.000000
    outer loop
      vertex 87.0000 35.0000 3.0000
      vertex 87.0000 35.0000 15.0000
      vertex 83.0000 35.0000 15.0000
    endloop
  endfacet
  facet normal 0.000000 -1.000000 0.000000
    outer loop
      vertex 87.0000 35.0000 3.0000
      vertex 83.0000 35.0000 15.0000
      vertex 83.0000 35.0000 3.0000
    endloop
  endfacet
  facet normal 1.000000 0.000000 0.000000
    outer loop
      vertex 83.0000 35.0000 3.0000
      vertex 83.0000 35.0000 15.0000
      vertex 83.0000 31.0000 15.0000
    endloop
  endfacet
  facet normal 1.000000 0.000000 0.000000
    outer loop
      vertex 83.0000 35.0000 3.0000
      vertex 83.0000 31.0000 15.0000
      vertex 83.0000 31.0000 3.0000
    endloop
  endfacet
endsolid sg90_clicker_mount_preview